<svg xmlns="http://www.w3.org/2000/svg" viewBox="0 0 27 27" width="27" height="27">
	<style>
		tspan { white-space:pre }
		.shp0 { fill: #37a6c1 } 
	</style>
	<path id="Shape 1" class="shp0" d="M24.73,10.8c-0.6,0 -1.09,0.49 -1.09,1.1v1.11c0,2.89 -1.12,5.6 -3.15,7.64c-2.03,2.04 -4.72,3.16 -7.58,3.16c0,0 0,0 -0.01,0c-5.92,0 -10.72,-4.85 -10.72,-10.81c0,-2.89 1.12,-5.6 3.15,-7.64c2.03,-2.04 4.72,-3.16 7.58,-3.16c0,0 0,0 0.01,0c1.51,0 2.98,0.32 4.36,0.94c0.55,0.25 1.19,0 1.44,-0.56c0.25,-0.55 0,-1.2 -0.55,-1.45c-1.66,-0.75 -3.43,-1.12 -5.25,-1.13c0,0 0,0 -0.01,0c-3.44,0 -6.68,1.35 -9.12,3.8c-2.44,2.45 -3.78,5.72 -3.79,9.19c0,3.47 1.34,6.74 3.78,9.19c2.44,2.46 5.68,3.81 9.13,3.81c0,0 0,0 0.01,0c3.44,0 6.68,-1.35 9.12,-3.8c2.44,-2.45 3.78,-5.72 3.79,-9.19v-1.11c0,-0.61 -0.49,-1.1 -1.09,-1.1zM26.68,1.52c-0.43,-0.43 -1.12,-0.43 -1.54,0l-12.23,12.32l-2.77,-2.79c-0.43,-0.43 -1.12,-0.43 -1.54,0c-0.43,0.43 -0.43,1.12 0,1.55l3.55,3.57c0.21,0.21 0.49,0.32 0.77,0.32c0.28,0 0.56,-0.11 0.77,-0.32l13,-13.09c0.43,-0.43 0.43,-1.13 0,-1.55z" />
</svg>