<svg xmlns="http://www.w3.org/2000/svg" viewBox="0 0 144 143" width="144" height="143">
	<style>
		tspan { white-space:pre }
		.shp0 { fill: #56d2ae } 
	</style>
	<path id="Forma 1" class="shp0" d="M72 142C71.59 142.01 71.18 142 70.77 141.99C70.64 142 70.52 141.99 70.4 142C70.16 142 69.91 141.99 69.67 141.96C46.08 141.2 25.37 128.88 13.02 110.5C12.89 110.35 12.77 110.17 12.68 109.98C5.28 98.76 0.98 85.32 1 70.9L1 70.9C1.03 51.94 8.44 34.12 21.87 20.73C34.77 7.86 51.74 0.56 69.87 0.03C70.12 0.01 70.39 0.03 70.6 0C70.73 0 70.85 0 70.98 0.01C71.35 0.01 71.73 0 72.1 0C91.07 0.03 108.89 7.44 122.28 20.87C135.67 34.3 143.03 52.14 143 71.11C142.98 85.51 138.65 98.93 131.23 110.12C131.13 110.33 131 110.53 130.84 110.69C118.07 129.57 96.45 142 72 142ZM69.59 137.78C69.99 137.81 70.39 137.83 70.79 137.85C74.72 137.43 78.92 130.53 82.11 119.21C82.82 116.71 83.46 114.06 84.03 111.27L56.85 111.24C57.42 114.03 58.06 116.68 58.75 119.17C61.8 130.09 65.8 136.91 69.59 137.78ZM88.25 111.28C87.6 114.47 86.88 117.5 86.09 120.32C83.97 127.82 81.47 133.44 78.65 137.08C90.02 134.36 99.96 124.84 106.64 111.31L88.25 111.28ZM37.25 111.21C43.12 123.2 51.56 132.06 61.3 135.84C58.84 132.21 56.65 126.99 54.78 120.28C53.99 117.45 53.28 114.42 52.64 111.23L37.25 111.21ZM111.14 111.31C106.63 121.02 100.54 128.97 93.43 134.35C106.23 130.01 117.3 121.89 125.31 111.33L111.14 111.31ZM18.58 111.18C26.56 121.76 37.6 129.91 50.38 134.29C43.3 128.89 37.23 120.92 32.75 111.2L18.58 111.18ZM112.92 107.19L128.2 107.21C134.59 97.34 138.44 85.68 138.84 73.16L119.58 73.13C119.32 85.54 116.92 97.16 112.92 107.19ZM89.01 107.15L108.52 107.18C112.68 97.3 115.19 85.64 115.45 73.13L91.88 73.1C91.77 85.28 90.77 96.94 89.01 107.15ZM56.07 107.11L84.83 107.15C86.62 97 87.64 85.33 87.75 73.09L53.24 73.04C53.33 85.28 54.31 96.96 56.07 107.11ZM35.38 107.08L51.89 107.1C50.16 96.88 49.2 85.22 49.12 73.03L28.54 73C28.77 85.52 31.25 97.19 35.38 107.08ZM15.7 107.05L30.98 107.07C27 97.03 24.64 85.41 24.41 73L5.16 72.97C5.52 85.49 9.34 97.16 15.7 107.05ZM119.59 69.01L138.85 69.03C138.51 57.2 135.11 45.89 129.02 36.01L113.49 35.99C117.27 45.98 119.38 57.26 119.59 69.01ZM91.89 68.97L115.46 69C115.24 57.16 113.03 45.86 109.06 35.98L89.29 35.96C90.91 45.92 91.81 57.2 91.89 68.97ZM53.25 68.91L87.76 68.96C87.68 57.15 86.76 45.85 85.11 35.95L56 35.91C54.31 45.8 53.36 57.09 53.25 68.91ZM28.55 68.88L49.12 68.91C49.23 57.14 50.16 45.86 51.81 35.9L35.04 35.88C31.05 45.74 28.8 57.04 28.55 68.88ZM5.16 68.84L24.42 68.87C24.66 57.12 26.8 45.85 30.61 35.87L15.08 35.85C8.97 45.71 5.54 57.01 5.16 68.84ZM111.79 31.86L126.25 31.88C124.19 29.03 121.89 26.32 119.35 23.78C112.03 16.44 103.3 11.01 93.77 7.74C98.24 11.15 102.37 15.66 106 21.17C108.18 24.48 110.11 28.06 111.79 31.86ZM88.57 31.83L107.25 31.85C105.85 28.89 104.28 26.07 102.55 23.44C95.99 13.48 87.74 7.09 78.84 4.94C81.64 8.59 84.14 14.22 86.23 21.72C87.1 24.86 87.88 28.24 88.57 31.83ZM56.76 31.78L84.36 31.82C83.74 28.64 83.03 25.63 82.25 22.83C79.09 11.5 74.91 4.59 70.99 4.15C70.59 4.16 70.18 4.19 69.78 4.22C65.98 5.08 61.97 11.89 58.89 22.8C58.1 25.6 57.39 28.6 56.76 31.78ZM36.86 31.75L52.55 31.77C53.24 28.19 54.03 24.81 54.92 21.68C56.81 14.97 59.02 9.76 61.48 6.13C54.06 8.99 47.21 14.86 41.59 23.35C39.85 25.98 38.27 28.79 36.86 31.75ZM17.86 31.72L32.32 31.74C34.01 27.95 35.96 24.38 38.15 21.07C41.79 15.58 45.93 11.08 50.42 7.67C40.88 10.92 32.13 16.32 24.78 23.65C22.24 26.18 19.93 28.88 17.86 31.72Z" />
</svg>