<svg xmlns="http://www.w3.org/2000/svg" viewBox="0 0 38 34" width="38" height="34">
	<style>
		tspan { white-space:pre }
		.shp0 { fill: #56d2ae } 
	</style>
	<path id="Forma 1" class="shp0" d="M34.38,3.58c-1.75,-1.72 -4.16,-2.58 -7.25,-2.58c-0.85,0 -1.72,0.15 -2.61,0.45c-0.89,0.3 -1.71,0.7 -2.48,1.21c-0.76,0.51 -1.42,0.98 -1.97,1.43c-0.55,0.44 -1.07,0.92 -1.57,1.42c-0.5,-0.5 -1.02,-0.97 -1.57,-1.42c-0.55,-0.44 -1.21,-0.92 -1.97,-1.43c-0.76,-0.51 -1.59,-0.91 -2.48,-1.21c-0.89,-0.3 -1.76,-0.45 -2.61,-0.45c-3.08,0 -5.5,0.86 -7.25,2.58c-1.75,1.72 -2.62,4.11 -2.62,7.17c0,0.93 0.16,1.89 0.49,2.87c0.32,0.99 0.69,1.83 1.1,2.52c0.41,0.7 0.88,1.37 1.4,2.03c0.52,0.66 0.91,1.11 1.15,1.36c0.24,0.25 0.43,0.43 0.57,0.54l12.88,12.54c0.25,0.25 0.55,0.38 0.91,0.38c0.36,0 0.66,-0.13 0.91,-0.37l12.86,-12.5c3.15,-3.18 4.73,-6.31 4.73,-9.38c0,-3.06 -0.87,-5.45 -2.62,-7.17z" />
</svg>