<svg xmlns="http://www.w3.org/2000/svg" width="27" height="27"><style/><path id="Shape 1" d="M24.73 10.8c-.6 0-1.09.49-1.09 1.1v1.11c0 2.89-1.12 5.6-3.15 7.64a10.62 10.62 0 0 1-7.58 3.16h-.01C6.98 23.81 2.18 18.96 2.18 13c0-2.89 1.12-5.6 3.15-7.64a10.62 10.62 0 0 1 7.58-3.16h.01c1.51 0 2.98.32 4.36.94.55.25 1.19 0 1.44-.56.25-.55 0-1.2-.55-1.45A12.84 12.84 0 0 0 12.92 0h-.01C9.47 0 6.23 1.35 3.79 3.8 1.35 6.25.01 9.52 0 12.99c0 3.47 1.34 6.74 3.78 9.19 2.44 2.46 5.68 3.81 9.13 3.81h.01c3.44 0 6.68-1.35 9.12-3.8 2.44-2.45 3.78-5.72 3.79-9.19v-1.11c0-.61-.49-1.1-1.09-1.1zm1.95-9.28a1.08 1.08 0 0 0-1.54 0L12.91 13.84l-2.77-2.79a1.08 1.08 0 0 0-1.54 0c-.43.43-.43 1.12 0 1.55l3.55 3.57c.21.21.49.32.77.32s.56-.11.77-.32l13-13.09c.43-.43.43-1.13 0-1.55z" fill="#37a6c1"/></svg>