<svg xmlns="http://www.w3.org/2000/svg" width="144" height="143"><style/><path id="Forma 1" d="M72 142c-.41.01-.82 0-1.23-.01-.13.01-.25 0-.37.01-.24 0-.49-.01-.73-.04-23.59-.76-44.3-13.08-56.65-31.46-.13-.15-.25-.33-.34-.52C5.28 98.76.98 85.32 1 70.9c.03-18.96 7.44-36.78 20.87-50.17C34.77 7.86 51.74.56 69.87.03c.25-.02.52 0 .73-.03.13 0 .25 0 .38.01.37 0 .75-.01 1.12-.01 18.97.03 36.79 7.44 50.18 20.87S143.03 52.14 143 71.11a70.56 70.56 0 0 1-11.77 39.01c-.1.21-.23.41-.39.57C118.07 129.57 96.45 142 72 142zm-2.41-4.22c.4.03.8.05 1.2.07 3.93-.42 8.13-7.32 11.32-18.64.71-2.5 1.35-5.15 1.92-7.94l-27.18-.03c.57 2.79 1.21 5.44 1.9 7.93 3.05 10.92 7.05 17.74 10.84 18.61zm18.66-26.5c-.65 3.19-1.37 6.22-2.16 9.04-2.12 7.5-4.62 13.12-7.44 16.76 11.37-2.72 21.31-12.24 27.99-25.77l-18.39-.03zm-51-.07c5.87 11.99 14.31 20.85 24.05 24.63-2.46-3.63-4.65-8.85-6.52-15.56-.79-2.83-1.5-5.86-2.14-9.05l-15.39-.02zm73.89.1c-4.51 9.71-10.6 17.66-17.71 23.04 12.8-4.34 23.87-12.46 31.88-23.02l-14.17-.02zm-92.56-.13c7.98 10.58 19.02 18.73 31.8 23.11-7.08-5.4-13.15-13.37-17.63-23.09l-14.17-.02zm94.34-3.99l15.28.02a66.39 66.39 0 0 0 10.64-34.05l-19.26-.03c-.26 12.41-2.66 24.03-6.66 34.06zm-23.91-.04l19.51.03c4.16-9.88 6.67-21.54 6.93-34.05l-23.57-.03c-.11 12.18-1.11 23.84-2.87 34.05zm-32.94-.04l28.76.04c1.79-10.15 2.81-21.82 2.92-34.06l-34.51-.05c.09 12.24 1.07 23.92 2.83 34.07zm-20.69-.03l16.51.02c-1.73-10.22-2.69-21.88-2.77-34.07L28.54 73c.23 12.52 2.71 24.19 6.84 34.08zm-19.68-.03l15.28.02C27 97.03 24.64 85.41 24.41 73l-19.25-.03a66.371 66.371 0 0 0 10.54 34.08zm103.89-38.04l19.26.02c-.34-11.83-3.74-23.14-9.83-33.02l-15.53-.02c3.78 9.99 5.89 21.27 6.1 33.02zm-27.7-.04l23.57.03c-.22-11.84-2.43-23.14-6.4-33.02l-19.77-.02c1.62 9.96 2.52 21.24 2.6 33.01zm-38.64-.06l34.51.05c-.08-11.81-1-23.11-2.65-33.01L56 35.91c-1.69 9.89-2.64 21.18-2.75 33zm-24.7-.03l20.57.03c.11-11.77 1.04-23.05 2.69-33.01l-16.77-.02c-3.99 9.86-6.24 21.16-6.49 33zm-23.39-.04l19.26.03c.24-11.75 2.38-23.02 6.19-33l-15.53-.02c-6.11 9.86-9.54 21.16-9.92 32.99zm106.63-36.98l14.46.02a66.733 66.733 0 0 0-6.9-8.1c-7.32-7.34-16.05-12.77-25.58-16.04 4.47 3.41 8.6 7.92 12.23 13.43 2.18 3.31 4.11 6.89 5.79 10.69zm-23.22-.03l18.68.02c-1.4-2.96-2.97-5.78-4.7-8.41-6.56-9.96-14.81-16.35-23.71-18.5 2.8 3.65 5.3 9.28 7.39 16.78.87 3.14 1.65 6.52 2.34 10.11zm-31.81-.05l27.6.04c-.62-3.18-1.33-6.19-2.11-8.99C79.09 11.5 74.91 4.59 70.99 4.15c-.4.01-.81.04-1.21.07-3.8.86-7.81 7.67-10.89 18.58-.79 2.8-1.5 5.8-2.13 8.98zm-19.9-.03l15.69.02c.69-3.58 1.48-6.96 2.37-10.09 1.89-6.71 4.1-11.92 6.56-15.55-7.42 2.86-14.27 8.73-19.89 17.22a69 69 0 0 0-4.73 8.4zm-19-.03l14.46.02c1.69-3.79 3.64-7.36 5.83-10.67 3.64-5.49 7.78-9.99 12.27-13.4-9.54 3.25-18.29 8.65-25.64 15.98a67.543 67.543 0 0 0-6.92 8.07z" fill="#56d2ae"/></svg>