<svg xmlns="http://www.w3.org/2000/svg" width="38" height="34"><style/><path id="Forma 1" d="M34.38 3.58C32.63 1.86 30.22 1 27.13 1c-.85 0-1.72.15-2.61.45-.89.3-1.71.7-2.48 1.21-.76.51-1.42.98-1.97 1.43-.55.44-1.07.92-1.57 1.42-.5-.5-1.02-.97-1.57-1.42-.55-.44-1.21-.92-1.97-1.43-.76-.51-1.59-.91-2.48-1.21-.89-.3-1.76-.45-2.61-.45-3.08 0-5.5.86-7.25 2.58C.87 5.3 0 7.69 0 10.75c0 .93.16 1.89.49 2.87.32.99.69 1.83 1.1 2.52.41.7.88 1.37 1.4 2.03.52.66.91 1.11 1.15 1.36.24.25.43.43.57.54l12.88 12.54c.25.25.55.38.91.38s.66-.13.91-.37l12.86-12.5c3.15-3.18 4.73-6.31 4.73-9.38 0-3.06-.87-5.45-2.62-7.17z" fill="#56d2ae"/></svg>